<svg width="216" height="63" viewBox="0 0 216 63" fill="none" xmlns="http://www.w3.org/2000/svg">
<path d="M53.568 0.64801L46.144 45H32.512L27.008 11.144L21.184 45H7.872L0.576 0.64801H11.072L15.488 37.064L21.632 0.64801H32.64L38.4 37.064L43.584 0.64801H53.568Z" fill="#001C1E"/>
<path d="M75.1875 33.96C75.1875 34.84 75.1475 35.6 75.0675 36.24H61.9075C62.1208 38.0267 62.6275 39.28 63.4275 40C64.2275 40.72 65.3342 41.08 66.7475 41.08C67.6008 41.08 68.4275 40.9333 69.2275 40.64C70.0275 40.32 70.8942 39.84 71.8275 39.2L74.4275 42.72C71.9475 44.6933 69.1875 45.68 66.1475 45.68C62.7075 45.68 60.0675 44.6667 58.2275 42.64C56.3875 40.6133 55.4675 37.8933 55.4675 34.48C55.4675 32.32 55.8542 30.3867 56.6275 28.68C57.4008 26.9467 58.5342 25.5867 60.0275 24.6C61.5208 23.5867 63.3075 23.08 65.3875 23.08C68.4542 23.08 70.8542 24.04 72.5875 25.96C74.3208 27.88 75.1875 30.5467 75.1875 33.96ZM68.9875 32.16C68.9342 28.9067 67.7875 27.28 65.5475 27.28C64.4542 27.28 63.6008 27.68 62.9875 28.48C62.4008 29.28 62.0408 30.6 61.9075 32.44H68.9875V32.16Z" fill="#001C1E"/>
<path d="M84.3778 45.68C82.5378 45.68 81.0978 45.16 80.0578 44.12C79.0445 43.0533 78.5378 41.5467 78.5378 39.6V15.32L84.8578 14.64V39.36C84.8578 40.24 85.2178 40.68 85.9378 40.68C86.3111 40.68 86.6578 40.6133 86.9778 40.48L88.2178 44.96C87.0711 45.44 85.7911 45.68 84.3778 45.68Z" fill="#001C1E"/>
<path d="M96.2528 45.68C94.4128 45.68 92.9728 45.16 91.9328 44.12C90.9195 43.0533 90.4128 41.5467 90.4128 39.6V15.32L96.7328 14.64V39.36C96.7328 40.24 97.0928 40.68 97.8128 40.68C98.1861 40.68 98.5328 40.6133 98.8528 40.48L100.093 44.96C98.9461 45.44 97.6661 45.68 96.2528 45.68Z" fill="#001C1E"/>
<path d="M108.808 23.76V45H102.488V23.76H108.808ZM105.608 12.56C106.701 12.56 107.594 12.9067 108.288 13.6C109.008 14.2667 109.368 15.12 109.368 16.16C109.368 17.2 109.008 18.0667 108.288 18.76C107.594 19.4267 106.701 19.76 105.608 19.76C104.514 19.76 103.621 19.4267 102.928 18.76C102.234 18.0667 101.888 17.2 101.888 16.16C101.888 15.12 102.234 14.2667 102.928 13.6C103.621 12.9067 104.514 12.56 105.608 12.56Z" fill="#001C1E"/>
<path d="M126.217 23.08C128.057 23.08 129.497 23.64 130.537 24.76C131.577 25.88 132.097 27.4533 132.097 29.48V45H125.777V30.56C125.777 29.4933 125.604 28.76 125.257 28.36C124.937 27.9333 124.444 27.72 123.777 27.72C122.497 27.72 121.27 28.64 120.097 30.48V45H113.777V23.76H119.297L119.737 26.28C120.644 25.2133 121.617 24.4133 122.657 23.88C123.724 23.3467 124.91 23.08 126.217 23.08Z" fill="#001C1E"/>
<path d="M156.423 25C155.036 25.56 152.996 25.84 150.303 25.84C151.689 26.4267 152.703 27.1467 153.343 28C153.983 28.8533 154.303 29.96 154.303 31.32C154.303 32.68 153.943 33.9067 153.223 35C152.503 36.0667 151.463 36.9067 150.103 37.52C148.769 38.1333 147.196 38.44 145.383 38.44C144.529 38.44 143.716 38.36 142.943 38.2C142.729 38.3067 142.556 38.48 142.423 38.72C142.316 38.9333 142.263 39.16 142.263 39.4C142.263 39.8 142.409 40.12 142.703 40.36C143.023 40.5733 143.649 40.68 144.583 40.68H147.783C149.409 40.68 150.836 40.9467 152.063 41.48C153.289 42.0133 154.236 42.7467 154.903 43.68C155.569 44.6133 155.903 45.6667 155.903 46.84C155.903 49.0533 154.943 50.7733 153.023 52C151.129 53.2533 148.383 53.88 144.783 53.88C142.196 53.88 140.156 53.6 138.663 53.04C137.169 52.5067 136.116 51.7467 135.503 50.76C134.916 49.7733 134.623 48.5333 134.623 47.04H140.303C140.303 47.68 140.423 48.1867 140.663 48.56C140.929 48.9333 141.396 49.2133 142.063 49.4C142.729 49.5867 143.689 49.68 144.943 49.68C146.676 49.68 147.876 49.4667 148.543 49.04C149.209 48.64 149.543 48.0533 149.543 47.28C149.543 46.64 149.289 46.1333 148.783 45.76C148.276 45.3867 147.516 45.2 146.503 45.2H143.423C141.236 45.2 139.596 44.8133 138.503 44.04C137.436 43.24 136.903 42.2267 136.903 41C136.903 40.2267 137.129 39.48 137.583 38.76C138.036 38.0133 138.649 37.4 139.423 36.92C138.089 36.2 137.116 35.36 136.503 34.4C135.916 33.4133 135.623 32.2267 135.623 30.84C135.623 28.4667 136.476 26.5867 138.183 25.2C139.889 23.7867 142.143 23.08 144.943 23.08C147.076 23.1333 148.876 22.92 150.343 22.44C151.836 21.96 153.369 21.2533 154.943 20.32L156.423 25ZM145.103 27.24C144.116 27.24 143.329 27.56 142.743 28.2C142.183 28.8133 141.903 29.6667 141.903 30.76C141.903 31.9067 142.183 32.8 142.743 33.44C143.329 34.0533 144.116 34.36 145.103 34.36C146.143 34.36 146.929 34.0533 147.463 33.44C148.023 32.8267 148.303 31.9067 148.303 30.68C148.303 28.3867 147.236 27.24 145.103 27.24Z" fill="#001C1E"/>
<path d="M172.214 44C171.441 44.5333 170.534 44.9467 169.494 45.24C168.481 45.5333 167.467 45.68 166.454 45.68C161.814 45.6533 159.494 43.0933 159.494 38V28.16H156.494V23.76H159.494V19.16L165.814 18.44V23.76H170.694L170.014 28.16H165.814V37.92C165.814 38.9067 165.974 39.6133 166.294 40.04C166.614 40.4667 167.121 40.68 167.814 40.68C168.534 40.68 169.294 40.4533 170.094 40L172.214 44Z" fill="#001C1E"/>
<path d="M182.821 23.08C186.074 23.08 188.621 24.08 190.461 26.08C192.301 28.0533 193.221 30.8267 193.221 34.4C193.221 36.6667 192.794 38.6533 191.941 40.36C191.114 42.04 189.914 43.3467 188.341 44.28C186.794 45.2133 184.954 45.68 182.821 45.68C179.594 45.68 177.047 44.6933 175.181 42.72C173.341 40.72 172.421 37.9333 172.421 34.36C172.421 32.0933 172.834 30.12 173.661 28.44C174.514 26.7333 175.714 25.4133 177.261 24.48C178.834 23.5467 180.687 23.08 182.821 23.08ZM182.821 27.72C181.541 27.72 180.581 28.2667 179.941 29.36C179.301 30.4267 178.981 32.0933 178.981 34.36C178.981 36.68 179.287 38.3733 179.901 39.44C180.541 40.5067 181.514 41.04 182.821 41.04C184.101 41.04 185.061 40.5067 185.701 39.44C186.341 38.3467 186.661 36.6667 186.661 34.4C186.661 32.08 186.341 30.3867 185.701 29.32C185.087 28.2533 184.127 27.72 182.821 27.72Z" fill="#001C1E"/>
<path d="M209.42 23.08C211.26 23.08 212.7 23.64 213.74 24.76C214.78 25.88 215.3 27.4533 215.3 29.48V45H208.98V30.56C208.98 29.4933 208.807 28.76 208.46 28.36C208.14 27.9333 207.647 27.72 206.98 27.72C205.7 27.72 204.473 28.64 203.3 30.48V45H196.98V23.76H202.5L202.94 26.28C203.847 25.2133 204.82 24.4133 205.86 23.88C206.927 23.3467 208.113 23.08 209.42 23.08Z" fill="#001C1E"/>
<path d="M0 53H55V63H0V53Z" fill="#00AEB9"/>
</svg>
